<svg width="51" height="51" viewBox="0 0 51 51" fill="none" xmlns="http://www.w3.org/2000/svg">
<path fill-rule="evenodd" clip-rule="evenodd" d="M19.0526 44.0526C19.0526 43.5 19.2721 42.9701 19.6628 42.5794C20.0535 42.1887 20.5834 41.9692 21.1359 41.9692H29.4692C30.0218 41.9692 30.5517 42.1887 30.9424 42.5794C31.3331 42.9701 31.5526 43.5 31.5526 44.0526C31.5526 44.6051 31.3331 45.135 30.9424 45.5257C30.5517 45.9164 30.0218 46.1359 29.4692 46.1359H21.1359C20.5834 46.1359 20.0535 45.9164 19.6628 45.5257C19.2721 45.135 19.0526 44.6051 19.0526 44.0526ZM19.0526 32.438C19.6051 32.438 20.135 32.6575 20.5257 33.0482C20.9164 33.4389 21.1359 33.9688 21.1359 34.5213V35.3505C21.1359 36.1297 21.7672 36.7609 22.5463 36.7609H28.0588C28.4329 36.7609 28.7916 36.6123 29.0561 36.3478C29.3206 36.0833 29.4692 35.7246 29.4692 35.3505V34.6776C29.4692 34.125 29.6887 33.5951 30.0794 33.2044C30.4701 32.8137 31 32.5942 31.5526 32.5942C32.1051 32.5942 32.635 32.8137 33.0257 33.2044C33.4164 33.5951 33.6359 34.125 33.6359 34.6776V35.3505C33.6362 36.083 33.4921 36.8083 33.2119 37.4851C32.9318 38.1618 32.521 38.7768 32.003 39.2947C31.4851 39.8126 30.8702 40.2234 30.1934 40.5036C29.5166 40.7838 28.7913 40.9278 28.0588 40.9276H22.5463C21.8139 40.9278 21.0885 40.7838 20.4117 40.5036C19.735 40.2234 19.1201 39.8126 18.6021 39.2947C18.0842 38.7768 17.6734 38.1618 17.3932 37.4851C17.113 36.8083 16.969 36.083 16.9692 35.3505V34.5213C16.9692 33.9688 17.1887 33.4389 17.5794 33.0482C17.9701 32.6575 18.5 32.438 19.0526 32.438Z" fill="#00FFFF"/>
<path d="M29.9442 35.3984C30.2296 36.2734 31.1734 36.7609 32.0171 36.3901C35.5246 34.8463 38.393 32.141 40.1391 28.7297C41.8853 25.3184 42.4025 21.4096 41.6038 17.6616C40.805 13.9135 38.739 10.5553 35.7537 8.15234C32.7685 5.74941 29.0463 4.44865 25.2142 4.46911C21.382 4.48957 17.674 5.83002 14.7145 8.26469C11.7551 10.6994 9.7251 14.0795 8.9664 17.8359C8.2077 21.5922 8.76666 25.4953 10.5491 28.8877C12.3316 32.2802 15.2287 34.9547 18.7525 36.4609C19.5984 36.8234 20.5379 36.3276 20.815 35.4484L20.9963 34.8692C21.2713 33.9922 20.7754 33.0651 19.9421 32.6776C17.3186 31.4591 15.1885 29.3833 13.9026 26.7922C12.6168 24.2011 12.2519 21.2492 12.8682 18.423C13.4846 15.5968 15.0452 13.0648 17.2931 11.2443C19.541 9.42379 22.3421 8.42334 25.2346 8.40778C28.1272 8.39222 30.9388 9.36249 33.2062 11.1587C35.4735 12.955 37.0614 15.47 37.7081 18.2894C38.3547 21.1088 38.0217 24.0644 36.7638 26.6692C35.5059 29.274 33.3982 31.3726 30.7879 32.6192C29.9567 33.0151 29.4713 33.9463 29.7567 34.8234L29.9442 35.3984Z" fill="#00FFFF"/>
<path fill-rule="evenodd" clip-rule="evenodd" d="M21.2526 19.2109C21.3429 18.9526 21.4831 18.7147 21.6654 18.5106C21.8476 18.3065 22.0683 18.1404 22.3147 18.0216C22.5612 17.9028 22.8286 17.8337 23.1018 17.8183C23.375 17.8029 23.6485 17.8414 23.9067 17.9317L25.7942 18.5921L25.8859 18.6234C26.3442 18.7817 26.8817 18.9692 27.3067 19.1921C27.7942 19.4484 28.5942 19.9838 28.863 21.0567C29.1297 22.1296 28.6755 22.9776 28.3672 23.4317C28.0963 23.8275 27.7088 24.2463 27.3817 24.6025L27.3151 24.6734L27.1005 24.9067L28.0276 25.2088C28.5392 25.39 28.9599 25.7636 29.2002 26.2503C29.4405 26.737 29.4814 27.2982 29.3142 27.8145C29.1469 28.3309 28.7848 28.7616 28.3048 29.015C27.8248 29.2684 27.2649 29.3245 26.7442 29.1713L25.1963 28.6713L25.1026 28.64C24.6035 28.4947 24.1161 28.3123 23.6442 28.0942C23.1484 27.8484 22.3213 27.3234 22.0359 26.2338C21.7505 25.1463 22.2151 24.2838 22.5255 23.8255C22.8005 23.4234 23.1922 22.9984 23.5297 22.6338L23.5963 22.5609L23.8234 22.315L22.5317 21.8651C22.2735 21.7748 22.0355 21.6345 21.8315 21.4523C21.6274 21.27 21.4612 21.0494 21.3425 20.8029C21.2237 20.5564 21.1546 20.289 21.1392 20.0158C21.1238 19.7427 21.1623 19.4691 21.2526 19.2109Z" fill="#00FFFF"/>
</svg>
