<svg width="36" height="26" viewBox="0 0 36 26" fill="none" xmlns="http://www.w3.org/2000/svg">
<g clip-path="url(#clip0_46_2015)">
<path d="M35.2049 4.39931C34.9984 3.64563 34.5957 2.95853 34.0367 2.40643C33.4777 1.85432 32.782 1.45647 32.0189 1.2525C29.2253 0.5 17.9817 0.5 17.9817 0.5C17.9817 0.5 6.73765 0.522778 3.944 1.27528C3.18089 1.47926 2.48521 1.87713 1.92623 2.42926C1.36725 2.9814 0.964464 3.66852 0.757996 4.42222C-0.0870198 9.32472 -0.414817 16.795 0.781199 21.5014C0.987689 22.2551 1.39048 22.9422 1.94946 23.4943C2.50844 24.0464 3.20411 24.4442 3.9672 24.6482C6.76086 25.4007 18.0047 25.4007 18.0047 25.4007C18.0047 25.4007 29.2483 25.4007 32.0419 24.6482C32.805 24.4442 33.5007 24.0464 34.0597 23.4943C34.6187 22.9422 35.0215 22.2551 35.228 21.5014C36.1193 16.5919 36.3939 9.12625 35.2049 4.39931Z" fill="#FF0000"/>
<path d="M14.403 18.2862L23.7303 12.9503L14.403 7.6145V18.2862Z" fill="white"/>
</g>
<defs>
<clipPath id="clip0_46_2015">
<rect width="36" height="25" fill="white" transform="translate(0 0.5)"/>
</clipPath>
</defs>
</svg>
